<svg xmlns="http://www.w3.org/2000/svg" xmlns:xlink="http://www.w3.org/1999/xlink" class="bg-white" width="500" zoomAndPan="magnify" viewBox="0 0 375 374.999991" height="500" preserveAspectRatio="xMidYMid meet" version="1.0"><defs><clipPath id="818946e29d"><path d="M 25.683594 110 L 349 110 L 349 255 L 25.683594 255 Z M 25.683594 110 " clip-rule="nonzero"/></clipPath></defs><rect x="-37.5" width="450" fill="#ffffff" y="-37.499999" height="449.999989" fill-opacity="1"/><rect x="-37.5" width="450" fill="#ffffff" y="-37.499999" height="449.999989" fill-opacity="1"/><rect x="-37.5" width="450" fill="#fdfdfd" y="-37.499999" height="449.999989" fill-opacity="1"/><g clip-path="url(#818946e29d)"><path fill="#38ac48" d="M 348.691406 164.398438 C 345.882812 140.558594 325.9375 141.574219 317.847656 143.007812 C 313.832031 133.332031 305.832031 125.894531 295.800781 121.933594 L 232.324219 110.105469 C 229.710938 109.660156 227.339844 111.691406 227.339844 114.332031 L 141.472656 127.179688 C 135.527344 128.074219 131.09375 135.480469 130.738281 141.621094 L 40.078125 151.046875 C 34.167969 151.046875 29.328125 155.691406 29.074219 161.589844 C 26.703125 219.105469 28.492188 175.972656 25.882812 239.105469 L 56.769531 240.75 C 55.796875 221.273438 82.789062 223.066406 80.175781 242.003906 L 174.179688 247.035156 C 171.863281 233.832031 180.464844 221.40625 191.957031 221.40625 C 204.140625 221.40625 212.828125 235.265625 209.320312 248.902344 C 268.332031 252.054688 255.460938 251.367188 315.398438 254.578125 C 324.253906 255.058594 331.703125 247.992188 331.703125 239.105469 C 331.285156 235.96875 320.402344 151.894531 319.757812 149.058594 C 325.3125 147.058594 332.148438 148.761719 332.148438 148.761719 L 332.148438 149.671875 L 338.507812 155.121094 L 342.105469 165.90625 C 343.34375 169.625 349.152344 168.386719 348.691406 164.398438 " fill-opacity="1" fill-rule="nonzero"/></g><path fill="#dff8e4" d="M 246.402344 136.511719 C 318.742188 136.511719 306.683594 126.328125 317.175781 201.320312 L 257.285156 201.320312 L 246.402344 136.511719 " fill-opacity="1" fill-rule="nonzero"/><path fill="#dff8e4" d="M 279.632812 186.921875 L 279.691406 187.324219 L 279.632812 186.921875 " fill-opacity="1" fill-rule="nonzero"/><path fill="#0e6b30" d="M 177.878906 242.734375 C 177.878906 265.585938 206.019531 265.542969 206.019531 242.734375 C 206.019531 219.929688 177.878906 219.898438 177.878906 242.734375 " fill-opacity="1" fill-rule="nonzero"/><path fill="#38ac48" d="M 270.539062 165.488281 C 266.988281 135.46875 236.308594 144.863281 236.308594 144.863281 L 237.667969 152.570312 C 243.101562 147.117188 254 149.851562 254 149.851562 L 254 150.761719 L 260.34375 156.199219 L 263.941406 166.980469 C 265.179688 170.714844 271.003906 169.460938 270.539062 165.488281 " fill-opacity="1" fill-rule="nonzero"/><path fill="#0e6b30" d="M 60.828125 240.015625 C 60.828125 252.023438 76.25 252.023438 76.25 240.015625 C 76.25 228.007812 60.828125 227.992188 60.828125 240.015625 " fill-opacity="1" fill-rule="nonzero"/><path fill="#dff8e4" d="M 268.523438 224.140625 L 237.625 208.875 C 237.726562 185.203125 234.085938 158.167969 229.742188 140.933594 C 228.324219 141.054688 38.09375 156.871094 36.0625 157.050781 L 32.703125 239.464844 L 35.433594 239.613281 L 36.269531 219.003906 L 236.011719 211.117188 L 266.824219 226.335938 L 266.824219 252.054688 L 269.539062 252.054688 L 269.539062 226.917969 L 330.285156 230.175781 L 330.433594 227.457031 Z M 210.097656 145.292969 L 227.652344 143.847656 C 228.441406 147.222656 230.816406 158.019531 232.621094 172.640625 L 210.097656 174.03125 Z M 185.449219 147.355469 L 207.378906 145.535156 L 207.378906 174.195312 L 185.449219 175.554688 Z M 160.804688 149.402344 L 182.71875 147.578125 L 182.71875 175.71875 L 160.804688 177.078125 Z M 136.140625 151.449219 L 158.070312 149.625 L 158.070312 177.242188 L 136.140625 178.601562 Z M 111.480469 153.507812 L 133.425781 151.671875 L 133.425781 178.765625 L 111.480469 180.125 Z M 86.832031 155.554688 L 108.761719 153.734375 L 108.761719 180.289062 L 86.832031 181.648438 Z M 62.1875 157.601562 L 84.117188 155.78125 L 84.117188 181.8125 L 62.1875 183.171875 Z M 38.691406 159.558594 L 59.453125 157.824219 L 59.453125 183.335938 L 37.660156 184.679688 Z M 36.375 216.269531 L 37.554688 187.414062 L 232.949219 175.34375 C 234.085938 185.171875 234.921875 196.523438 234.890625 208.441406 L 36.375 216.269531 " fill-opacity="1" fill-rule="nonzero"/></svg>